<mxfile host="Electron" agent="Mozilla/5.0 (Windows NT 10.0; Win64; x64) AppleWebKit/537.36 (KHTML, like Gecko) draw.io/26.2.2 Chrome/134.0.6998.178 Electron/35.1.2 Safari/537.36" version="26.2.2">
  <diagram id="C5RBs43oDa-KdzZeNtuy" name="Page-1">
    <mxGraphModel dx="3668" dy="1634" grid="1" gridSize="10" guides="1" tooltips="1" connect="1" arrows="0" fold="1" page="0" pageScale="1" pageWidth="827" pageHeight="1169" math="0" shadow="0" adaptiveColors="auto">
      <root>
        <mxCell id="WIyWlLk6GJQsqaUBKTNV-0" />
        <mxCell id="WIyWlLk6GJQsqaUBKTNV-1" parent="WIyWlLk6GJQsqaUBKTNV-0" />
        <mxCell id="fSfS56mvh5IIjUqDp6pZ-27" value="&lt;div&gt;&lt;b&gt;Životná situácia&lt;/b&gt;&lt;/div&gt;&lt;div&gt;&lt;b&gt;&lt;br&gt;&lt;/b&gt;&lt;/div&gt;&lt;div style=&quot;text-align: left;&quot;&gt;udalosť v živote fyzickej osoby alebo v životnom cykle právnickej osoby, ktorá je riešená službami verejnej správy, ako aj spôsob usporiadania služieb verejnej správy z používateľského pohľadu osoby pri výkone práv a povinností vo vzťahu k orgánom riadenia,&lt;/div&gt;&lt;div style=&quot;text-align: left;&quot;&gt;95/2013 §3 o)&lt;/div&gt;" style="html=1;outlineConnect=0;whiteSpace=wrap;fillColor=#FFF323;shape=mxgraph.archimate3.application;appType=serv;archiType=rounded;strokeColor=#000000;fontStyle=0;container=0;verticalAlign=top;spacing=5;" parent="WIyWlLk6GJQsqaUBKTNV-1" vertex="1">
          <mxGeometry x="-680" y="-40" width="240" height="160" as="geometry" />
        </mxCell>
        <mxCell id="fSfS56mvh5IIjUqDp6pZ-28" value="&lt;div style=&quot;text-align: center;&quot;&gt;&lt;b style=&quot;background-color: transparent; color: light-dark(rgb(0, 0, 0), rgb(255, 255, 255));&quot;&gt;Agenda verejnej správy&lt;/b&gt;&lt;/div&gt;&lt;div&gt;&lt;br&gt;&lt;div&gt;ucelený súhrn činností na konkrétnom úseku verejnej správy, ktoré vrátane spôsobu ich výkonu ustanovuje osobitný predpis,&amp;nbsp;&lt;/div&gt;&lt;div&gt;&lt;span style=&quot;background-color: transparent; color: light-dark(rgb(0, 0, 0), rgb(255, 255, 255));&quot;&gt;95/2013 §3 p)&lt;/span&gt;&lt;/div&gt;&lt;/div&gt;" style="html=1;outlineConnect=0;whiteSpace=wrap;fillColor=#FFF323;shape=mxgraph.archimate3.application;appType=func;archiType=rounded;strokeColor=#000000;align=left;verticalAlign=top;spacing=5;strokeWidth=2;" parent="WIyWlLk6GJQsqaUBKTNV-1" vertex="1">
          <mxGeometry x="-1040" y="200" width="240" height="160" as="geometry" />
        </mxCell>
        <mxCell id="fSfS56mvh5IIjUqDp6pZ-29" value="" style="html=1;startArrow=diamondThin;startFill=0;edgeStyle=elbowEdgeStyle;elbow=vertical;startSize=10;endArrow=none;endFill=0;rounded=0;exitX=0.5;exitY=1;exitDx=0;exitDy=0;exitPerimeter=0;" parent="WIyWlLk6GJQsqaUBKTNV-1" source="fSfS56mvh5IIjUqDp6pZ-27" target="HlwJ4vFnk3lEtQnq5Rxz-0" edge="1">
          <mxGeometry width="160" relative="1" as="geometry">
            <mxPoint x="-400" y="570" as="sourcePoint" />
            <mxPoint x="-240" y="570" as="targetPoint" />
          </mxGeometry>
        </mxCell>
        <mxCell id="fSfS56mvh5IIjUqDp6pZ-35" value="Koncová služba&amp;nbsp;&lt;span style=&quot;color: light-dark(rgb(0, 0, 0), rgb(255, 255, 255));&quot;&gt;spadá&amp;nbsp;&lt;/span&gt;&lt;div&gt;&lt;span style=&quot;color: light-dark(rgb(0, 0, 0), rgb(255, 255, 255));&quot;&gt;pod životnú situáciu&lt;/span&gt;&lt;/div&gt;" style="edgeLabel;html=1;align=left;verticalAlign=middle;resizable=0;points=[];labelBackgroundColor=none;" parent="fSfS56mvh5IIjUqDp6pZ-29" vertex="1" connectable="0">
          <mxGeometry x="0.375" y="2" relative="1" as="geometry">
            <mxPoint y="-15" as="offset" />
          </mxGeometry>
        </mxCell>
        <mxCell id="fSfS56mvh5IIjUqDp6pZ-34" value="" style="edgeStyle=elbowEdgeStyle;html=1;endArrow=openAsync;elbow=horizontal;rounded=0;endFill=0;" parent="WIyWlLk6GJQsqaUBKTNV-1" source="fSfS56mvh5IIjUqDp6pZ-28" target="HlwJ4vFnk3lEtQnq5Rxz-0" edge="1">
          <mxGeometry width="160" relative="1" as="geometry">
            <mxPoint x="-400" y="570" as="sourcePoint" />
            <mxPoint x="-240" y="570" as="targetPoint" />
          </mxGeometry>
        </mxCell>
        <mxCell id="fSfS56mvh5IIjUqDp6pZ-36" value="&lt;span style=&quot;&quot;&gt;Koncová služba&lt;/span&gt;&lt;div style=&quot;&quot;&gt;spadá pod agendu&lt;/div&gt;" style="edgeLabel;html=1;align=left;verticalAlign=middle;resizable=0;points=[];labelBackgroundColor=none;" parent="fSfS56mvh5IIjUqDp6pZ-34" vertex="1" connectable="0">
          <mxGeometry x="0.2417" y="1" relative="1" as="geometry">
            <mxPoint x="-65" as="offset" />
          </mxGeometry>
        </mxCell>
        <mxCell id="TSPFeBl4CS8ZxYkINz86-0" value="&lt;b&gt;Úsek verejnej správy&lt;/b&gt;&lt;div style=&quot;text-align: left;&quot;&gt;&lt;br&gt;&lt;/div&gt;&lt;div style=&quot;text-align: left;&quot;&gt;vecná oblasť, v ktorej právomoci, práva a povinnosti orgánu riadenia, ako aj spôsob ich výkonu ustanovuje osobitný predpis a ktorá obsahuje najmenej dve agendy verejnej správy&amp;nbsp;&lt;/div&gt;&lt;div style=&quot;text-align: left;&quot;&gt;&lt;span style=&quot;background-color: transparent; color: light-dark(rgb(0, 0, 0), rgb(255, 255, 255));&quot;&gt;95/2013 §3 o)&lt;/span&gt;&lt;/div&gt;&lt;div style=&quot;text-align: left;&quot;&gt;&lt;br&gt;&lt;/div&gt;" style="html=1;outlineConnect=0;whiteSpace=wrap;fillColor=#FFF323;shape=mxgraph.archimate3.application;appType=func;archiType=rounded;strokeColor=#000000;verticalAlign=top;spacing=5;" parent="WIyWlLk6GJQsqaUBKTNV-1" vertex="1">
          <mxGeometry x="-1040" y="-40" width="240" height="160" as="geometry" />
        </mxCell>
        <mxCell id="TSPFeBl4CS8ZxYkINz86-1" value="" style="html=1;startArrow=diamondThin;startFill=0;edgeStyle=elbowEdgeStyle;elbow=vertical;startSize=10;endArrow=none;endFill=0;rounded=0;" parent="WIyWlLk6GJQsqaUBKTNV-1" source="TSPFeBl4CS8ZxYkINz86-0" target="fSfS56mvh5IIjUqDp6pZ-28" edge="1">
          <mxGeometry width="160" relative="1" as="geometry">
            <mxPoint x="-640" y="310" as="sourcePoint" />
            <mxPoint x="-800" y="310" as="targetPoint" />
          </mxGeometry>
        </mxCell>
        <mxCell id="TSPFeBl4CS8ZxYkINz86-3" value="Fyzická osoba" style="html=1;outlineConnect=0;whiteSpace=wrap;fillColor=#FFF323;shape=mxgraph.archimate3.application;appType=actor;archiType=square;strokeColor=#000000;" parent="WIyWlLk6GJQsqaUBKTNV-1" vertex="1">
          <mxGeometry x="-320" y="-40" width="240" height="60" as="geometry" />
        </mxCell>
        <mxCell id="HlwJ4vFnk3lEtQnq5Rxz-0" value="&lt;div&gt;&lt;b&gt;Služba verejnej správy&lt;/b&gt;&lt;/div&gt;&lt;div&gt;&lt;b&gt;&lt;br&gt;&lt;/b&gt;&lt;/div&gt;&lt;div style=&quot;text-align: left;&quot;&gt;výkon právomocí, práv a povinností orgánu riadenia, ktorej rozsah a spôsob výkonu ustanovuje osobitný predpis,&lt;/div&gt;&lt;div style=&quot;text-align: left;&quot;&gt;95/2013 §3 k)&lt;/div&gt;" style="html=1;outlineConnect=0;whiteSpace=wrap;fillColor=#FFF323;shape=mxgraph.archimate3.application;appType=serv;archiType=rounded;strokeColor=#000000;fontStyle=0;container=0;verticalAlign=top;spacing=5;strokeWidth=2;" parent="WIyWlLk6GJQsqaUBKTNV-1" vertex="1">
          <mxGeometry x="-680" y="200" width="240" height="160" as="geometry" />
        </mxCell>
        <mxCell id="HlwJ4vFnk3lEtQnq5Rxz-1" value="&lt;b&gt;Ústredný orgán štátnej správy&lt;/b&gt;&lt;div&gt;&lt;br&gt;&lt;/div&gt;&lt;div style=&quot;text-align: left;&quot;&gt;&lt;span style=&quot;background-color: transparent; color: light-dark(rgb(0, 0, 0), rgb(255, 255, 255));&quot;&gt;Ministerstvo ... je ústredným orgánom štátnej správy pre ...&lt;/span&gt;&lt;/div&gt;&lt;div style=&quot;text-align: left;&quot;&gt;&lt;div&gt;&lt;span style=&quot;text-align: center;&quot;&gt;577/2001 §3, §6-20, §21&lt;/span&gt;&lt;span style=&quot;background-color: transparent; color: light-dark(rgb(0, 0, 0), rgb(255, 255, 255));&quot;&gt;&lt;/span&gt;&lt;/div&gt;&lt;div&gt;&lt;/div&gt;&lt;/div&gt;&lt;div style=&quot;text-align: left;&quot;&gt;&lt;span style=&quot;background-color: transparent; color: light-dark(rgb(0, 0, 0), rgb(255, 255, 255));&quot;&gt;&lt;br&gt;&lt;/span&gt;&lt;/div&gt;&lt;div style=&quot;text-align: left;&quot;&gt;&lt;span style=&quot;background-color: transparent; color: light-dark(rgb(0, 0, 0), rgb(255, 255, 255));&quot;&gt;Úrad vlády,&amp;nbsp;&lt;/span&gt;&lt;span style=&quot;background-color: transparent; color: light-dark(rgb(0, 0, 0), rgb(255, 255, 255));&quot;&gt;Protimonopolný úrad,&lt;/span&gt;&lt;/div&gt;&lt;div style=&quot;text-align: left;&quot;&gt;&lt;div&gt;Štatistický úrad,&amp;nbsp;&lt;span style=&quot;background-color: transparent; color: light-dark(rgb(0, 0, 0), rgb(255, 255, 255));&quot;&gt;Úrad geodézie, kartografie a katastra,&lt;/span&gt;&lt;span style=&quot;background-color: transparent; color: light-dark(rgb(0, 0, 0), rgb(255, 255, 255));&quot;&gt;Úrad jadrového dozoru, ...&lt;/span&gt;&lt;/div&gt;&lt;div&gt;§21 ...&lt;/div&gt;&lt;/div&gt;" style="html=1;outlineConnect=0;whiteSpace=wrap;fillColor=#FFF323;shape=mxgraph.archimate3.application;appType=role;archiType=square;strokeColor=#000000;verticalAlign=top;spacing=5;" parent="WIyWlLk6GJQsqaUBKTNV-1" vertex="1">
          <mxGeometry x="-1400" y="-40" width="240" height="160" as="geometry" />
        </mxCell>
        <mxCell id="HlwJ4vFnk3lEtQnq5Rxz-2" value="pre" style="endArrow=block;html=1;endFill=1;startArrow=oval;startFill=1;edgeStyle=elbowEdgeStyle;elbow=vertical;rounded=0;verticalAlign=bottom;labelBackgroundColor=none;" parent="WIyWlLk6GJQsqaUBKTNV-1" source="HlwJ4vFnk3lEtQnq5Rxz-1" target="TSPFeBl4CS8ZxYkINz86-0" edge="1">
          <mxGeometry width="160" relative="1" as="geometry">
            <mxPoint x="-580" y="530" as="sourcePoint" />
            <mxPoint x="-420" y="530" as="targetPoint" />
          </mxGeometry>
        </mxCell>
        <mxCell id="HlwJ4vFnk3lEtQnq5Rxz-3" value="&lt;div&gt;&lt;font&gt;&lt;b&gt;Povinná osoba / OVM&lt;/b&gt;&lt;/font&gt;&lt;/div&gt;&lt;div&gt;&lt;br&gt;&lt;/div&gt;&lt;div style=&quot;text-align: left;&quot;&gt;&lt;span style=&quot;background-color: transparent; color: light-dark(rgb(0, 0, 0), rgb(255, 255, 255));&quot;&gt;&lt;font style=&quot;font-size: 11px;&quot;&gt;je to skôr definovanie vzťahu, že niekto je povinný niečo vykonávať. Napr. podľa §4 (1)&amp;nbsp; 305/2013 OVM zabezpečuje vytvorenie prístupových miest, spol. modulov a AIS.&lt;/font&gt;&lt;/span&gt;&lt;/div&gt;&lt;div style=&quot;text-align: left;&quot;&gt;&lt;font style=&quot;color: light-dark(rgb(0, 0, 0), rgb(255, 255, 255)); background-color: transparent; font-size: 11px;&quot;&gt;Alebo §2 211/2000&lt;/font&gt; :&amp;nbsp;&lt;span style=&quot;&quot;&gt;&lt;font style=&quot;font-size: 11px;&quot;&gt;Osobami povinnými podľa tohto zákona sprístupňovať informácie (ďalej len „povinné osoby“) sú štátne orgány, obce, ...&lt;/font&gt;&lt;/span&gt;&lt;/div&gt;&lt;div style=&quot;text-align: left;&quot;&gt;&lt;span style=&quot;&quot;&gt;&lt;font style=&quot;font-size: 11px;&quot;&gt;regulované profesie, komory, ...&lt;/font&gt;&lt;/span&gt;&lt;/div&gt;" style="html=1;outlineConnect=0;whiteSpace=wrap;fillColor=#FFF323;shape=mxgraph.archimate3.application;appType=role;archiType=square;strokeColor=#000000;align=center;verticalAlign=top;fontFamily=Helvetica;fontSize=12;spacing=5;" parent="WIyWlLk6GJQsqaUBKTNV-1" vertex="1">
          <mxGeometry x="-1400" y="200" width="240" height="160" as="geometry" />
        </mxCell>
        <mxCell id="HlwJ4vFnk3lEtQnq5Rxz-4" value="Právnická osoba" style="html=1;outlineConnect=0;whiteSpace=wrap;fillColor=#FFF323;shape=mxgraph.archimate3.application;appType=actor;archiType=square;strokeColor=#000000;" parent="WIyWlLk6GJQsqaUBKTNV-1" vertex="1">
          <mxGeometry x="-320" y="60" width="240" height="60" as="geometry" />
        </mxCell>
        <mxCell id="HlwJ4vFnk3lEtQnq5Rxz-6" value="" style="edgeStyle=elbowEdgeStyle;html=1;endArrow=openAsync;elbow=vertical;rounded=0;endFill=0;" parent="WIyWlLk6GJQsqaUBKTNV-1" source="TSPFeBl4CS8ZxYkINz86-3" target="fSfS56mvh5IIjUqDp6pZ-27" edge="1">
          <mxGeometry width="160" relative="1" as="geometry">
            <mxPoint x="-750" y="210" as="sourcePoint" />
            <mxPoint x="-590" y="210" as="targetPoint" />
          </mxGeometry>
        </mxCell>
        <mxCell id="HlwJ4vFnk3lEtQnq5Rxz-7" value="" style="edgeStyle=elbowEdgeStyle;html=1;endArrow=openAsync;elbow=vertical;rounded=0;endFill=0;" parent="WIyWlLk6GJQsqaUBKTNV-1" source="HlwJ4vFnk3lEtQnq5Rxz-4" target="fSfS56mvh5IIjUqDp6pZ-27" edge="1">
          <mxGeometry width="160" relative="1" as="geometry">
            <mxPoint x="-670" y="-110" as="sourcePoint" />
            <mxPoint x="-610" y="-30" as="targetPoint" />
          </mxGeometry>
        </mxCell>
        <mxCell id="HlwJ4vFnk3lEtQnq5Rxz-10" value="&lt;b&gt;Údaj&lt;/b&gt;&lt;div&gt;&lt;div&gt;&lt;div style=&quot;text-align: left;&quot;&gt;&lt;br&gt;&lt;/div&gt;&lt;/div&gt;&lt;/div&gt;" style="html=1;outlineConnect=0;whiteSpace=wrap;fillColor=#FFF323;shape=mxgraph.archimate3.application;appType=passive;archiType=square;strokeColor=#000000;verticalAlign=top;strokeWidth=2;" parent="WIyWlLk6GJQsqaUBKTNV-1" vertex="1">
          <mxGeometry x="-680" y="400" width="240" height="80" as="geometry" />
        </mxCell>
        <mxCell id="HlwJ4vFnk3lEtQnq5Rxz-11" value="" style="html=1;startArrow=diamondThin;startFill=1;startSize=10;endArrow=none;endFill=0;rounded=0;strokeColor=#000000;edgeStyle=elbowEdgeStyle;horizontal=1;verticalAlign=middle;" parent="WIyWlLk6GJQsqaUBKTNV-1" source="HlwJ4vFnk3lEtQnq5Rxz-14" target="HlwJ4vFnk3lEtQnq5Rxz-10" edge="1">
          <mxGeometry width="160" relative="1" as="geometry">
            <mxPoint x="-840" y="801.5" as="sourcePoint" />
            <mxPoint x="-630" y="850" as="targetPoint" />
          </mxGeometry>
        </mxCell>
        <mxCell id="HlwJ4vFnk3lEtQnq5Rxz-12" value="1..*" style="edgeLabel;html=1;align=left;verticalAlign=middle;resizable=0;points=[];labelBackgroundColor=none;" parent="HlwJ4vFnk3lEtQnq5Rxz-11" vertex="1" connectable="0">
          <mxGeometry x="0.7524" y="-1" relative="1" as="geometry">
            <mxPoint x="1" y="3" as="offset" />
          </mxGeometry>
        </mxCell>
        <mxCell id="HlwJ4vFnk3lEtQnq5Rxz-13" value="&lt;b&gt;Subjekt evidencie&lt;/b&gt;&lt;div&gt;&lt;br&gt;&lt;div&gt;&lt;div style=&quot;text-align: left;&quot;&gt;osoba, vec, právo, povinnosť alebo skutočnosť, údaje o ktorých sú predmetom evidovania orgánom verejnej moci v rámci jeho pôsobnosti podľa osobitných predpisov&lt;/div&gt;&lt;/div&gt;&lt;/div&gt;&lt;div style=&quot;text-align: left;&quot;&gt;305/2013 §49 c)&lt;/div&gt;" style="html=1;outlineConnect=0;whiteSpace=wrap;fillColor=#FFF323;shape=mxgraph.archimate3.application;appType=passive;archiType=square;strokeColor=#000000;verticalAlign=top;spacing=5;" parent="WIyWlLk6GJQsqaUBKTNV-1" vertex="1">
          <mxGeometry x="-320" y="520" width="240" height="160" as="geometry" />
        </mxCell>
        <mxCell id="HlwJ4vFnk3lEtQnq5Rxz-14" value="&lt;b&gt;Objekt evidencie&lt;/b&gt;&lt;div&gt;&lt;br&gt;&lt;div&gt;&lt;div style=&quot;text-align: left;&quot;&gt;množina údajov o subjekte evidencie, ktorá je predmetom evidovania orgánom verejnej moci v rámci jeho pôsobnosti podľa osobitných predpisov a ktorá je jednoznačne identifikovaná identifikátorom objektu evidencie,&lt;/div&gt;&lt;/div&gt;&lt;/div&gt;&lt;div style=&quot;text-align: left;&quot;&gt;305/2013 §49 b)&lt;/div&gt;" style="html=1;outlineConnect=0;whiteSpace=wrap;fillColor=#FFF323;shape=mxgraph.archimate3.application;appType=passive;archiType=square;strokeColor=#000000;verticalAlign=top;spacing=5;" parent="WIyWlLk6GJQsqaUBKTNV-1" vertex="1">
          <mxGeometry x="-680" y="520" width="240" height="160" as="geometry" />
        </mxCell>
        <mxCell id="HlwJ4vFnk3lEtQnq5Rxz-15" value="Popisuje&lt;div&gt;údaje&lt;/div&gt;&lt;div&gt;subjektu&lt;/div&gt;" style="edgeStyle=elbowEdgeStyle;html=1;endArrow=openAsync;elbow=vertical;rounded=0;endFill=0;verticalAlign=bottom;labelBackgroundColor=none;" parent="WIyWlLk6GJQsqaUBKTNV-1" source="HlwJ4vFnk3lEtQnq5Rxz-14" target="HlwJ4vFnk3lEtQnq5Rxz-13" edge="1">
          <mxGeometry width="160" relative="1" as="geometry">
            <mxPoint x="-1310" y="610" as="sourcePoint" />
            <mxPoint x="-1250" y="690" as="targetPoint" />
          </mxGeometry>
        </mxCell>
        <mxCell id="HlwJ4vFnk3lEtQnq5Rxz-16" value="pôsobnosť pre" style="endArrow=block;html=1;endFill=1;startArrow=oval;startFill=1;edgeStyle=elbowEdgeStyle;elbow=vertical;rounded=0;labelBackgroundColor=none;verticalAlign=bottom;" parent="WIyWlLk6GJQsqaUBKTNV-1" source="HlwJ4vFnk3lEtQnq5Rxz-3" target="fSfS56mvh5IIjUqDp6pZ-28" edge="1">
          <mxGeometry width="160" relative="1" as="geometry">
            <mxPoint x="-1150" y="50" as="sourcePoint" />
            <mxPoint x="-1030" y="50" as="targetPoint" />
          </mxGeometry>
        </mxCell>
        <mxCell id="HlwJ4vFnk3lEtQnq5Rxz-17" value="&lt;div style=&quot;&quot;&gt;&lt;b style=&quot;background-color: transparent; color: light-dark(rgb(0, 0, 0), rgb(255, 255, 255));&quot;&gt;Činnosť agendy verejnej správy&lt;/b&gt;&lt;/div&gt;" style="html=1;outlineConnect=0;whiteSpace=wrap;fillColor=#FFF323;shape=mxgraph.archimate3.application;appType=func;archiType=rounded;strokeColor=#000000;align=center;verticalAlign=top;strokeWidth=2;" parent="WIyWlLk6GJQsqaUBKTNV-1" vertex="1">
          <mxGeometry x="-1040" y="400" width="240" height="80" as="geometry" />
        </mxCell>
        <mxCell id="HlwJ4vFnk3lEtQnq5Rxz-18" value="" style="html=1;startArrow=diamondThin;startFill=1;startSize=10;endArrow=none;endFill=0;rounded=0;strokeColor=#000000;edgeStyle=elbowEdgeStyle;horizontal=1;verticalAlign=middle;elbow=vertical;" parent="WIyWlLk6GJQsqaUBKTNV-1" source="fSfS56mvh5IIjUqDp6pZ-28" target="HlwJ4vFnk3lEtQnq5Rxz-17" edge="1">
          <mxGeometry width="160" relative="1" as="geometry">
            <mxPoint x="80" y="-20" as="sourcePoint" />
            <mxPoint x="80" y="20" as="targetPoint" />
          </mxGeometry>
        </mxCell>
        <mxCell id="HlwJ4vFnk3lEtQnq5Rxz-19" value="1..*" style="edgeLabel;html=1;align=left;verticalAlign=middle;resizable=0;points=[];labelBackgroundColor=none;" parent="HlwJ4vFnk3lEtQnq5Rxz-18" vertex="1" connectable="0">
          <mxGeometry x="0.7524" y="-1" relative="1" as="geometry">
            <mxPoint x="4" y="-1" as="offset" />
          </mxGeometry>
        </mxCell>
        <mxCell id="HlwJ4vFnk3lEtQnq5Rxz-20" value="&lt;b&gt;Register&lt;/b&gt;&lt;div&gt;&lt;br&gt;&lt;div&gt;&lt;div style=&quot;text-align: left;&quot;&gt;miesto uchovávania objektov evidencie, ktoré vytvára, uchováva a vykonáva vo vzťahu k nim ďalšie úkony orgán verejnej moci v rámci svojej pôsobnosti a podľa osobitných predpisov,&lt;/div&gt;&lt;/div&gt;&lt;/div&gt;&lt;div style=&quot;text-align: left;&quot;&gt;305/2013 §49 a)&lt;/div&gt;" style="html=1;outlineConnect=0;whiteSpace=wrap;fillColor=#FFF323;shape=mxgraph.archimate3.application;appType=passive;archiType=square;strokeColor=#000000;verticalAlign=top;spacing=5;" parent="WIyWlLk6GJQsqaUBKTNV-1" vertex="1">
          <mxGeometry x="-1040" y="520" width="240" height="160" as="geometry" />
        </mxCell>
        <mxCell id="HlwJ4vFnk3lEtQnq5Rxz-21" value="správca registra&#xa;305/2013 §49 i)" style="endArrow=block;endFill=1;startArrow=oval;startFill=1;edgeStyle=elbowEdgeStyle;elbow=vertical;rounded=0;exitX=0.5;exitY=1;exitDx=0;exitDy=0;exitPerimeter=0;entryX=0;entryY=0.5;entryDx=0;entryDy=0;entryPerimeter=0;labelBackgroundColor=none;verticalAlign=top;" parent="WIyWlLk6GJQsqaUBKTNV-1" source="HlwJ4vFnk3lEtQnq5Rxz-3" target="HlwJ4vFnk3lEtQnq5Rxz-20" edge="1">
          <mxGeometry width="160" relative="1" as="geometry">
            <mxPoint x="-1150" y="290" as="sourcePoint" />
            <mxPoint x="-1030" y="290" as="targetPoint" />
            <Array as="points">
              <mxPoint x="-1150" y="600" />
            </Array>
          </mxGeometry>
        </mxCell>
        <mxCell id="HlwJ4vFnk3lEtQnq5Rxz-22" value="" style="html=1;startArrow=diamondThin;startFill=1;startSize=10;endArrow=none;endFill=0;rounded=0;strokeColor=#000000;edgeStyle=elbowEdgeStyle;horizontal=1;verticalAlign=middle;elbow=vertical;exitX=1;exitY=0.5;exitDx=0;exitDy=0;exitPerimeter=0;" parent="WIyWlLk6GJQsqaUBKTNV-1" source="HlwJ4vFnk3lEtQnq5Rxz-20" target="HlwJ4vFnk3lEtQnq5Rxz-14" edge="1">
          <mxGeometry width="160" relative="1" as="geometry">
            <mxPoint x="-910" y="370" as="sourcePoint" />
            <mxPoint x="-910" y="410" as="targetPoint" />
          </mxGeometry>
        </mxCell>
        <mxCell id="HlwJ4vFnk3lEtQnq5Rxz-23" value="1..*" style="edgeLabel;html=1;align=left;verticalAlign=middle;resizable=0;points=[];labelBackgroundColor=none;" parent="HlwJ4vFnk3lEtQnq5Rxz-22" vertex="1" connectable="0">
          <mxGeometry x="0.7524" y="-1" relative="1" as="geometry">
            <mxPoint x="4" y="-1" as="offset" />
          </mxGeometry>
        </mxCell>
        <mxCell id="HlwJ4vFnk3lEtQnq5Rxz-24" value="&lt;b&gt;Kanál&lt;/b&gt;" style="html=1;outlineConnect=0;whiteSpace=wrap;fillColor=#FFF323;shape=mxgraph.archimate3.application;appType=interface;archiType=square;strokeColor=#000000;verticalAlign=top;" parent="WIyWlLk6GJQsqaUBKTNV-1" vertex="1">
          <mxGeometry x="-320" y="200" width="240" height="160" as="geometry" />
        </mxCell>
        <mxCell id="HlwJ4vFnk3lEtQnq5Rxz-25" value="sprístupňuje" style="endArrow=block;html=1;endFill=1;startArrow=oval;startFill=1;edgeStyle=elbowEdgeStyle;elbow=vertical;rounded=0;labelBackgroundColor=none;verticalAlign=bottom;" parent="WIyWlLk6GJQsqaUBKTNV-1" source="HlwJ4vFnk3lEtQnq5Rxz-24" target="HlwJ4vFnk3lEtQnq5Rxz-0" edge="1">
          <mxGeometry width="160" relative="1" as="geometry">
            <mxPoint x="-200" y="390" as="sourcePoint" />
            <mxPoint x="-40" y="390" as="targetPoint" />
          </mxGeometry>
        </mxCell>
        <mxCell id="vhBjUXz0owLD4HNfqWac-0" value="&lt;b&gt;Výkon verejnej moci&lt;/b&gt;&lt;div style=&quot;text-align: left;&quot;&gt;konanie orgánu verejnej moci v rozsahu podľa osobitných predpisov, vo veciach práv, právom chránených záujmov a povinností fyzických osôb alebo právnických osôb,&amp;nbsp;&lt;span style=&quot;background-color: transparent; color: light-dark(rgb(0, 0, 0), rgb(255, 255, 255));&quot;&gt;305/2013 §3 a)&lt;/span&gt;&lt;/div&gt;" style="html=1;outlineConnect=0;whiteSpace=wrap;fillColor=#FFFFFF;shape=mxgraph.archimate3.application;appType=func;archiType=rounded;strokeColor=#000000;verticalAlign=middle;spacing=5;" vertex="1" parent="WIyWlLk6GJQsqaUBKTNV-1">
          <mxGeometry x="-1400" y="-120" width="1320" height="40" as="geometry" />
        </mxCell>
      </root>
    </mxGraphModel>
  </diagram>
</mxfile>
